HIERARCHY
ROOT Hips
{
	OFFSET -3.958830 18.904000 13.208200
	CHANNELS 6 Xposition Yposition Zposition Zrotation Yrotation Xrotation 
	JOINT LHipJoint
	{
		OFFSET 0.000000 0.000000 0.000000
		CHANNELS 3 Zrotation Yrotation Xrotation
		JOINT LeftUpLeg
		{
			OFFSET 1.800000 -1.400000 0.085000
			CHANNELS 3 Zrotation Yrotation Xrotation
			JOINT LeftLeg
			{
				OFFSET 2.215000 -6.000000 0.000000
				CHANNELS 3 Zrotation Yrotation Xrotation
				JOINT LeftFoot
				{
					OFFSET 2.500000 -6.900000 0.000000
					CHANNELS 3 Zrotation Yrotation Xrotation
					JOINT LeftToeBase
					{
						OFFSET 0.200000 -0.500000 1.950000
						CHANNELS 3 Zrotation Yrotation Xrotation
						End Site
						{
							OFFSET 0.000000 0.000000 0.000000
						}
					}
				}
			}
		}
	}
	JOINT RHipJoint
	{
		OFFSET 0.000000 0.000000 0.000000
		CHANNELS 3 Zrotation Yrotation Xrotation
		JOINT RightUpLeg
		{
			OFFSET -1.800000 -1.400000 0.085000
			CHANNELS 3 Zrotation Yrotation Xrotation
			JOINT RightLeg
			{
				OFFSET -2.215000 -6.000000 0.000000
				CHANNELS 3 Zrotation Yrotation Xrotation
				JOINT RightFoot
				{
					OFFSET -2.500000 -6.900000 0.000000
					CHANNELS 3 Zrotation Yrotation Xrotation
					JOINT RightToeBase
					{
						OFFSET -0.200000 -0.500000 1.950000
						CHANNELS 3 Zrotation Yrotation Xrotation
						End Site
						{
							OFFSET 0.000000 0.000000 0.000000
						}
					}
				}
			}
		}
	}
	JOINT LowerBack
	{
		OFFSET 0.000000 0.000000 0.000000
		CHANNELS 3 Zrotation Yrotation Xrotation
		JOINT Spine
		{
			OFFSET -0.087000 1.940000 -0.288900
			CHANNELS 3 Zrotation Yrotation Xrotation
			JOINT Spine1
			{
				OFFSET 0.000000 1.950000 0.060000
				CHANNELS 3 Zrotation Yrotation Xrotation
				JOINT Neck
				{
					OFFSET 0.000000 0.000000 0.000000
					CHANNELS 3 Zrotation Yrotation Xrotation
					JOINT Neck1
					{
						OFFSET 0.000000 1.600000 0.340000
						CHANNELS 3 Zrotation Yrotation Xrotation
						JOINT Head
						{
							OFFSET 0.000000 1.667000 -0.240000
							CHANNELS 3 Zrotation Yrotation Xrotation
							End Site
							{
								OFFSET 0.000000 0.000000 0.000000
							}
						}
					}
				}
				JOINT LeftShoulder
				{
					OFFSET 0.000000 0.000000 0.000000
					CHANNELS 3 Zrotation Yrotation Xrotation
					JOINT LeftArm
					{
						OFFSET 2.700000 1.550000 -0.730000
						CHANNELS 3 Zrotation Yrotation Xrotation
						JOINT LeftForeArm
						{
							OFFSET 5.450000 0.000000 0.000000
							CHANNELS 3 Zrotation Yrotation Xrotation
							JOINT LeftHand
							{
								OFFSET 3.450000 0.000000 0.000000
								CHANNELS 3 Zrotation Yrotation Xrotation
								JOINT LeftHandIndex1
								{
									OFFSET 0.750000 0.000000 0.000000
									CHANNELS 3 Zrotation Yrotation Xrotation
									End Site
									{
										OFFSET 0.000000 0.000000 0.000000
									}
								}
							}
						}
					}
				}
				JOINT RightShoulder
				{
					OFFSET 0.000000 0.000000 0.000000
					CHANNELS 3 Zrotation Yrotation Xrotation
					JOINT RightArm
					{
						OFFSET -2.700000 1.550000 -0.730000
						CHANNELS 3 Zrotation Yrotation Xrotation
						JOINT RightForeArm
						{
							OFFSET -5.450000 0.000000 0.000000
							CHANNELS 3 Zrotation Yrotation Xrotation
							JOINT RightHand
							{
								OFFSET -3.450000 0.000000 0.000000
								CHANNELS 3 Zrotation Yrotation Xrotation
								JOINT RightHandIndex1
								{
									OFFSET -0.750000 0.000000 0.000000
									CHANNELS 3 Zrotation Yrotation Xrotation
									End Site
									{
										OFFSET 0.000000 0.000000 0.000000
									}
								}
							}
						}
					}
				}
			}
		}
	}
}
MOTION
Frames: 9
Frame Time: 0.016667
0.293770 17.221220 0.007130 -0.239294 2.082350 7.897864 -15.538857 11.459518 5.144421 -13.857854 -8.985652 -46.299317 0.591601 3.795697 22.363464 -1.374837 3.102225 3.568691 0.521650 -0.062950 0.610980 18.105000 -10.499493 2.801799 0.842508 -0.970299 8.687868 7.617212 -7.953719 19.154183 -0.932808 -5.573459 2.762046 0.103240 0.213330 0.112020 -2.843200 -0.624039 -8.306746 2.900545 9.297191 21.544494 1.442587 11.593413 -1.906133 3.595560 2.781732 -4.952328 4.070059 -4.641760 37.311508 -5.448320 -0.465160 -22.313110 -28.817954 3.318287 -1.406041 -44.810764 13.070681 -8.943295 -26.297702 -3.729862 -3.000734 -3.653354 2.324228 1.158590 0.010400 0.026120 0.170780 21.473319 1.080090 1.381179 43.936165 3.215005 -9.632270 46.263585 43.561027 13.494252 1.789943 -1.359817 -0.595910 0.538830 0.035580 -0.535700 
0.293090 17.064900 -0.056380 -0.089430 2.107355 9.319760 -15.545024 11.263574 5.213541 -16.059526 -9.106653 -47.865684 2.057904 3.177468 19.610629 -1.355826 2.554531 3.757912 0.526720 -0.042190 0.610160 18.117974 -10.521163 2.847441 1.004209 -1.260628 9.144474 7.693156 -7.738365 16.983914 -0.926989 -5.473266 2.784943 0.080010 0.169390 0.125760 -2.853241 -0.261030 -8.328892 2.600468 10.671944 20.975355 1.840367 12.925733 -3.667289 3.499343 3.251453 -4.791478 5.065892 -5.663989 37.767911 -5.318540 -0.927380 -21.655420 -29.565815 3.904526 -1.704213 -44.927688 12.486405 -7.861231 -22.691291 -0.575101 -3.155185 -3.653244 2.322469 1.114220 -0.010040 0.043390 0.165170 22.358858 0.975275 1.110223 45.830742 4.013234 -9.850127 33.090783 39.680739 8.029445 1.810854 -1.290322 -0.531820 0.470740 0.009090 -0.511620 
0.289460 16.913060 -0.092970 0.439394 0.914275 10.475113 -15.603748 11.158222 5.242738 -18.081758 -9.098548 -49.353446 3.459401 2.863556 18.113261 -1.412451 2.364238 3.858622 0.441330 -0.151080 0.556410 18.072927 -10.541870 2.814954 0.425581 -1.239583 9.529292 7.090378 -7.522034 15.452980 -0.878129 -5.391111 2.849174 0.029990 0.223830 0.105670 -2.690836 -0.032829 -8.248432 0.833865 13.040667 20.365035 3.011950 15.143258 -5.620021 3.341155 3.617328 -4.781470 5.811678 -6.725735 38.221905 -5.522480 -1.656950 -21.050440 -30.074422 4.556471 -2.099648 -45.254518 12.056644 -6.758747 -19.079108 2.391810 -3.169787 -3.737075 2.162202 1.140050 0.014210 0.009830 0.153560 23.208420 1.323288 1.280472 46.318920 4.039051 -9.860071 23.273861 35.236801 4.485471 1.772980 -1.137086 -0.590490 0.519070 0.063200 -0.521990 
0.281890 16.798900 -0.110950 1.050453 0.210593 10.975266 -15.686433 11.137032 5.259182 -19.874178 -9.089457 -50.770779 4.719108 2.772465 18.547418 -1.376524 2.350970 3.841591 0.393430 -0.210300 0.533100 17.993757 -10.495667 2.809669 -0.304243 -1.101604 10.437065 7.438005 -7.595805 14.224690 -0.889769 -5.392703 2.848577 -0.029760 0.193860 0.102320 -2.453856 -0.023137 -8.203721 -1.146139 15.381671 20.718931 4.517273 17.384821 -7.896980 3.114459 4.016110 -5.340175 6.576061 -7.812318 40.113487 -5.071090 -2.316760 -21.462730 -30.517923 4.651321 -2.070656 -45.856406 12.219122 -6.214941 -15.793226 4.117851 -2.950469 -3.746395 2.088344 1.176240 -0.022930 0.032490 0.127960 24.239128 2.481397 1.988276 46.231218 3.307174 -9.998475 14.589043 30.965718 2.020696 1.779734 -1.024550 -0.584410 0.499350 0.086520 -0.527000 
0.270100 16.706430 -0.122640 1.028435 0.096637 11.520374 -15.718305 11.089766 5.313442 -20.999498 -9.163042 -53.027447 6.038803 2.766629 20.315207 -1.318709 2.518704 3.735834 0.349970 -0.272930 0.506160 17.962494 -10.480888 2.854397 0.036190 -1.302346 10.812617 7.244667 -7.500134 13.133369 -0.877558 -5.317575 2.869396 -0.090300 0.151660 0.090050 -2.366201 0.094833 -8.247218 -1.424378 17.072718 21.497664 4.985702 19.225101 -10.170162 2.806843 3.950820 -6.178998 6.608510 -8.524026 42.101933 -3.964470 -3.175580 -21.299430 -30.691549 4.549186 -2.054000 -46.370703 12.353196 -5.781850 -12.817950 5.486077 -2.649608 -3.749884 2.056399 1.203560 -0.066090 0.033950 0.088540 24.937111 3.883933 3.043192 46.231169 1.840006 -10.033552 8.125215 27.024792 0.594024 1.797844 -0.957181 -0.571460 0.456460 0.117790 -0.539750 
0.266710 16.637480 -0.122940 1.812586 0.747710 12.077952 -15.769461 10.959735 5.542216 -23.134348 -10.230073 -55.003784 8.341810 2.465145 22.870333 -1.337501 2.931366 3.579243 0.211360 -0.464020 0.412410 17.936771 -10.369682 2.829669 -0.078109 -1.395108 11.094019 7.124363 -7.458934 12.033287 -0.823899 -5.248318 2.895291 -0.172850 0.223630 0.074100 -2.268096 0.047373 -8.370028 -1.968607 18.128888 22.391178 5.299394 20.190339 -11.555516 2.241190 3.052718 -6.972711 4.861185 -8.444615 44.058815 -2.366350 -4.556230 -20.941000 -30.640529 3.973884 -1.902326 -47.162743 12.691909 -5.748952 -10.710764 5.631348 -2.476975 -3.836144 1.937816 1.270610 -0.058330 -0.015280 0.034580 26.036115 5.815228 4.113812 45.512854 0.549131 -9.680480 2.862402 22.191044 -0.126843 1.790908 -0.804179 -0.658030 0.514020 0.248800 -0.561570 
0.268390 16.599080 -0.122670 2.686018 2.156439 12.369989 -15.798622 10.822434 5.814015 -25.083136 -11.510291 -56.346321 10.180061 2.082235 25.225755 -1.290889 3.263924 3.455079 0.160310 -0.540880 0.378100 17.929935 -10.242414 2.828224 -0.055934 -1.538967 11.429040 7.342933 -7.431862 11.050514 -0.812541 -5.178914 2.928688 -0.219130 0.241170 0.040530 -2.236493 -0.044001 -8.589459 -1.623734 18.282686 23.956816 5.000980 20.378856 -12.181518 1.785266 1.755978 -8.092296 2.415192 -7.839512 46.517864 -0.207550 -5.695790 -21.118610 -30.142020 2.952971 -1.344910 -48.959797 13.795865 -6.963743 -8.978386 2.961907 -2.320890 -3.817553 1.890839 1.317770 -0.091090 -0.025710 0.018000 26.444795 8.183845 5.169294 45.260666 0.038976 -8.692776 -0.461902 16.742775 -0.248616 1.850799 -0.698865 -0.692930 0.551260 0.289030 -0.564360 
0.288020 16.554080 -0.112780 2.587034 5.008162 13.458504 -15.768132 10.461534 6.224019 -26.822120 -13.477375 -57.877632 12.485934 1.254197 26.858138 -1.254718 3.556119 3.353664 0.104650 -0.614980 0.312900 18.017577 -10.147332 2.846888 1.696620 -2.131108 10.652254 7.018434 -7.232028 10.598914 -0.760484 -5.059601 2.970261 -0.244330 0.295870 0.037930 -2.429116 0.221732 -8.890050 0.967727 16.924409 24.344074 3.907917 19.610077 -11.848029 1.521715 0.890630 -8.594014 0.851712 -7.437836 45.973703 0.870140 -6.747270 -19.522030 -29.072608 2.319462 -1.065685 -50.730069 13.772943 -7.583589 -8.028076 1.906164 -2.260518 -3.866379 1.899574 1.302700 -0.066110 -0.075780 0.012310 25.538432 9.219238 5.504894 45.956166 0.317628 -7.446105 -1.859655 11.971743 -0.075925 1.909483 -0.664823 -0.718580 0.558480 0.339330 -0.552170 
0.296930 16.535670 -0.063730 2.616864 7.454577 14.350587 -15.735445 10.214291 6.483155 -27.969775 -14.726141 -58.174935 13.700466 0.701070 27.163940 -1.233629 3.636725 3.320186 0.055620 -0.665630 0.249840 18.090034 -10.093614 2.857710 3.052566 -2.497945 9.955793 6.811093 -7.135975 10.648956 -0.716761 -4.990185 3.000604 -0.272420 0.341920 0.054120 -2.595681 0.420067 -9.073161 2.721930 15.861537 24.255715 3.250280 18.919881 -11.748671 1.271556 0.429372 -8.645114 0.031032 -7.190166 45.257712 1.863250 -7.432610 -18.732650 -28.059295 2.318656 -1.021529 -52.036992 13.433269 -7.695498 -7.259156 2.252239 -2.189394 -3.936664 1.907490 1.273720 -0.033440 -0.113210 -0.003340 24.750956 9.281814 5.426813 46.929531 0.624671 -6.658548 -2.290432 8.792379 0.140845 1.950174 -0.640048 -0.714110 0.549110 0.390200 -0.533310 
